<svg xmlns="http://www.w3.org/2000/svg" xmlns:xlink="http://www.w3.org/1999/xlink" width="1500" zoomAndPan="magnify" viewBox="0 0 1125 374.999991" height="500" preserveAspectRatio="xMidYMid meet" version="1.0"><defs><g/></defs><rect x="-112.5" width="1350" fill="#ffffff" y="-37.499999" height="449.999989" fill-opacity="1"/><rect x="-112.5" width="1350" fill="#ffffff" y="-37.499999" height="449.999989" fill-opacity="1"/><g fill="#000000" fill-opacity="1"><g transform="translate(4.74859, 272.194696)"><g><path d="M 285.578125 -192.96875 L 339.90625 -192.96875 C 341.507812 -192.96875 342.890625 -192.382812 344.046875 -191.21875 C 345.210938 -190.0625 345.796875 -188.679688 345.796875 -187.078125 C 345.796875 -185.472656 345.210938 -184.085938 344.046875 -182.921875 C 342.890625 -181.765625 341.507812 -181.1875 339.90625 -181.1875 L 316.890625 -181.1875 L 238.734375 0.265625 C 237.835938 2.585938 236.050781 3.75 233.375 3.75 L 231.78125 3.75 C 229.28125 3.75 227.40625 2.585938 226.15625 0.265625 L 174.5 -120.171875 L 122.578125 0.265625 C 121.679688 2.585938 119.898438 3.75 117.234375 3.75 L 115.625 3.75 C 113.125 3.75 111.25 2.585938 110 0.265625 L 32.109375 -181.1875 L 8.5625 -181.1875 C 6.78125 -181.1875 5.351562 -181.765625 4.28125 -182.921875 C 3.207031 -184.085938 2.671875 -185.472656 2.671875 -187.078125 C 2.671875 -188.679688 3.207031 -190.0625 4.28125 -191.21875 C 5.351562 -192.382812 6.78125 -192.96875 8.5625 -192.96875 L 77.609375 -192.96875 C 81.179688 -192.96875 83.679688 -191.179688 85.109375 -187.609375 L 137.828125 -65.03125 L 168.078125 -135.15625 L 148.265625 -181.1875 L 129.53125 -181.1875 C 127.75 -181.1875 126.320312 -181.765625 125.25 -182.921875 C 124.1875 -184.085938 123.65625 -185.472656 123.65625 -187.078125 C 123.65625 -188.679688 124.1875 -190.0625 125.25 -191.21875 C 126.320312 -192.382812 127.75 -192.96875 129.53125 -192.96875 L 224.015625 -192.96875 C 225.617188 -192.96875 227 -192.382812 228.15625 -191.21875 C 229.320312 -190.0625 229.90625 -188.679688 229.90625 -187.078125 C 229.90625 -185.472656 229.320312 -184.085938 228.15625 -182.921875 C 227 -181.765625 225.617188 -181.1875 224.015625 -181.1875 L 203.9375 -181.1875 L 253.984375 -65.03125 L 303.765625 -181.1875 L 285.578125 -181.1875 C 283.785156 -181.1875 282.351562 -181.765625 281.28125 -182.921875 C 280.21875 -184.085938 279.6875 -185.472656 279.6875 -187.078125 C 279.6875 -188.679688 280.21875 -190.0625 281.28125 -191.21875 C 282.351562 -192.382812 283.785156 -192.96875 285.578125 -192.96875 Z M 131.40625 -50.3125 L 130.609375 -51.65625 L 74.9375 -181.1875 L 44.96875 -181.1875 L 116.421875 -15.25 Z M 247.5625 -50.3125 L 246.765625 -51.65625 L 191.09375 -181.1875 L 161.125 -181.1875 L 232.578125 -15.25 Z M 247.5625 -50.3125 "/></g></g></g><g fill="#000000" fill-opacity="1"><g transform="translate(353.187573, 272.194696)"><g><path d="M 198.328125 -11.78125 L 222.671875 -11.78125 C 224.273438 -11.78125 225.65625 -11.195312 226.8125 -10.03125 C 227.976562 -8.875 228.5625 -7.492188 228.5625 -5.890625 C 228.5625 -4.285156 227.976562 -2.898438 226.8125 -1.734375 C 225.65625 -0.578125 224.273438 0 222.671875 0 L 124.1875 0 C 122.582031 0 121.195312 -0.578125 120.03125 -1.734375 C 118.875 -2.898438 118.296875 -4.285156 118.296875 -5.890625 C 118.296875 -7.492188 118.875 -8.875 120.03125 -10.03125 C 121.195312 -11.195312 122.582031 -11.78125 124.1875 -11.78125 L 142.390625 -11.78125 L 123.921875 -54.859375 L 60.75 -54.859375 L 42.28125 -11.78125 L 61.015625 -11.78125 C 62.628906 -11.78125 64.015625 -11.195312 65.171875 -10.03125 C 66.328125 -8.875 66.90625 -7.492188 66.90625 -5.890625 C 66.90625 -4.285156 66.328125 -2.898438 65.171875 -1.734375 C 64.015625 -0.578125 62.628906 0 61.015625 0 L 6.15625 0 C 4.550781 0 3.164062 -0.578125 2 -1.734375 C 0.84375 -2.898438 0.265625 -4.285156 0.265625 -5.890625 C 0.265625 -7.492188 0.84375 -8.875 2 -10.03125 C 3.164062 -11.195312 4.550781 -11.78125 6.15625 -11.78125 L 29.4375 -11.78125 L 107.59375 -193.765625 C 108.84375 -196.441406 110.984375 -197.78125 114.015625 -197.78125 C 116.867188 -197.78125 118.921875 -196.441406 120.171875 -193.765625 Z M 98.765625 -143.1875 L 131.671875 -66.640625 L 161.921875 -66.640625 L 114.015625 -178.515625 Z M 118.828125 -66.640625 L 92.34375 -128.203125 L 65.84375 -66.640625 Z M 155.234375 -11.78125 L 185.46875 -11.78125 L 167 -54.859375 L 136.765625 -54.859375 Z M 155.234375 -11.78125 "/></g></g></g><g fill="#000000" fill-opacity="1"><g transform="translate(582.00121, 272.194696)"><g><path d="M 178.515625 -11.78125 L 178.515625 -31.046875 C 178.515625 -32.648438 179.09375 -34.03125 180.25 -35.1875 C 181.414062 -36.351562 182.800781 -36.9375 184.40625 -36.9375 C 186.007812 -36.9375 187.390625 -36.351562 188.546875 -35.1875 C 189.710938 -34.03125 190.296875 -32.648438 190.296875 -31.046875 L 190.296875 -5.890625 C 190.296875 -4.285156 189.710938 -2.898438 188.546875 -1.734375 C 187.390625 -0.578125 186.007812 0 184.40625 0 L 17.9375 0 C 15.613281 0 13.914062 -0.976562 12.84375 -2.9375 C 11.769531 -5.257812 11.859375 -7.3125 13.109375 -9.09375 L 124.71875 -181.1875 L 38.265625 -181.1875 L 38.265625 -162.71875 C 38.265625 -161.113281 37.6875 -159.734375 36.53125 -158.578125 C 35.375 -157.421875 33.992188 -156.84375 32.390625 -156.84375 C 30.773438 -156.84375 29.390625 -157.421875 28.234375 -158.578125 C 27.078125 -159.734375 26.5 -161.113281 26.5 -162.71875 L 26.5 -187.078125 C 26.5 -188.679688 27.078125 -190.0625 28.234375 -191.21875 C 29.390625 -192.382812 30.773438 -192.96875 32.390625 -192.96875 L 184.40625 -192.96875 C 186.726562 -192.96875 188.421875 -191.988281 189.484375 -190.03125 C 190.554688 -187.707031 190.46875 -185.65625 189.21875 -183.875 L 77.609375 -11.78125 Z M 63.703125 -11.78125 L 173.4375 -181.1875 L 138.640625 -181.1875 L 28.640625 -11.78125 Z M 63.703125 -11.78125 "/></g></g></g><g fill="#000000" fill-opacity="1"><g transform="translate(785.658701, 272.194696)"><g><path d="M 85.640625 -12.046875 L 104.921875 -12.046875 C 106.523438 -12.046875 107.90625 -11.460938 109.0625 -10.296875 C 110.21875 -9.140625 110.796875 -7.757812 110.796875 -6.15625 C 110.796875 -4.375 110.21875 -2.898438 109.0625 -1.734375 C 107.90625 -0.578125 106.523438 0 104.921875 0 L 14.984375 0 C 13.203125 0 11.726562 -0.578125 10.5625 -1.734375 C 9.40625 -2.898438 8.828125 -4.375 8.828125 -6.15625 C 8.828125 -7.757812 9.40625 -9.140625 10.5625 -10.296875 C 11.726562 -11.460938 13.203125 -12.046875 14.984375 -12.046875 L 35.0625 -12.046875 L 35.0625 -180.65625 L 14.984375 -180.65625 C 13.203125 -180.65625 11.726562 -181.234375 10.5625 -182.390625 C 9.40625 -183.554688 8.828125 -185.03125 8.828125 -186.8125 C 8.828125 -188.414062 9.40625 -189.796875 10.5625 -190.953125 C 11.726562 -192.117188 13.203125 -192.703125 14.984375 -192.703125 L 104.921875 -192.703125 C 106.523438 -192.703125 107.90625 -192.117188 109.0625 -190.953125 C 110.21875 -189.796875 110.796875 -188.414062 110.796875 -186.8125 C 110.796875 -185.03125 110.21875 -183.554688 109.0625 -182.390625 C 107.90625 -181.234375 106.523438 -180.65625 104.921875 -180.65625 L 85.640625 -180.65625 Z M 73.59375 -12.046875 L 73.59375 -180.65625 L 47.109375 -180.65625 L 47.109375 -12.046875 Z M 73.59375 -12.046875 "/></g></g></g><g fill="#000000" fill-opacity="1"><g transform="translate(905.284105, 272.194696)"><g><path d="M 164.59375 -192.96875 L 214.375 -192.96875 C 215.976562 -192.96875 217.359375 -192.382812 218.515625 -191.21875 C 219.679688 -190.0625 220.265625 -188.679688 220.265625 -187.078125 C 220.265625 -185.296875 219.679688 -183.867188 218.515625 -182.796875 C 217.359375 -181.722656 215.976562 -181.1875 214.375 -181.1875 L 193.234375 -181.1875 L 193.234375 -4.546875 C 193.234375 -1.867188 191.984375 -0.0859375 189.484375 0.796875 C 188.773438 1.160156 188.0625 1.34375 187.34375 1.34375 C 185.738281 1.34375 184.3125 0.71875 183.0625 -0.53125 L 42.015625 -142.65625 L 42.015625 -11.78125 L 61.296875 -11.78125 C 62.898438 -11.78125 64.28125 -11.195312 65.4375 -10.03125 C 66.59375 -8.875 67.171875 -7.492188 67.171875 -5.890625 C 67.171875 -4.109375 66.59375 -2.679688 65.4375 -1.609375 C 64.28125 -0.535156 62.898438 0 61.296875 0 L 11.515625 0 C 9.898438 0 8.515625 -0.535156 7.359375 -1.609375 C 6.203125 -2.679688 5.625 -4.109375 5.625 -5.890625 C 5.625 -7.492188 6.203125 -8.875 7.359375 -10.03125 C 8.515625 -11.195312 9.898438 -11.78125 11.515625 -11.78125 L 30.25 -11.78125 L 30.25 -181.1875 L 11.515625 -181.1875 C 9.898438 -181.1875 8.515625 -181.722656 7.359375 -182.796875 C 6.203125 -183.867188 5.625 -185.296875 5.625 -187.078125 C 5.625 -188.679688 6.203125 -190.0625 7.359375 -191.21875 C 8.515625 -192.382812 9.898438 -192.96875 11.515625 -192.96875 L 61.015625 -192.96875 C 62.984375 -192.96875 64.367188 -192.609375 65.171875 -191.890625 C 65.972656 -191.179688 66.734375 -190.46875 67.453125 -189.75 L 181.453125 -75.46875 L 181.453125 -181.1875 L 164.59375 -181.1875 C 162.988281 -181.1875 161.601562 -181.722656 160.4375 -182.796875 C 159.28125 -183.867188 158.703125 -185.296875 158.703125 -187.078125 C 158.703125 -188.679688 159.28125 -190.0625 160.4375 -191.21875 C 161.601562 -192.382812 162.988281 -192.96875 164.59375 -192.96875 Z M 42.015625 -159.515625 L 181.453125 -18.734375 L 181.453125 -58.609375 L 59.421875 -181.1875 L 42.015625 -181.1875 Z M 42.015625 -159.515625 "/></g></g></g></svg>